PathFileType	4	(X/Y/Z)	OpenSim_Sub11_CSPreOp_Accel.trc
DataRate	CameraRate	NumFrames	NumMarkers	Units	OrigDataRate	OrigDataStartFrame	OrigNumFrames
100	100	27	8	m	100	926	3701
Frame#	Time	torso_imu_offset_imu	pelvis_imu_offset_imu	tibia_r_imu_offset_imu	femur_r_imu_offset_imu	tibia_l_imu_offset_imu	femur_l_imu_offset_imu	toes_r_imu_offset_imu	toes_l_imu_offset_imu
				X1	Y1	Z1	X2	Y2	Z2	X3	Y3	Z3	X4	Y4	Z4	X5	Y5	Z5	X6	Y6	Z6	X7	Y7	Z7	X8		Y8	Z8	

926	9.25000000	8.84999200	1.14329500	4.72539000	9.32141900	0.50630700	4.06235100	9.01305700	-4.45531000	3.61078600	12.68259800	-1.33622100	0.08522500	9.81178500	0.70216400	1.29175800	9.82593300	1.94917800	-1.01063000	3.95856800	1.12617100	9.47201800	5.87140700	-0.42125000	7.96237800
927	9.26000000	8.87201800	0.91023700	4.76908300	9.54216100	0.74244700	4.25982800	11.34361700	-3.18276300	4.37893800	12.59878100	-3.84649100	-2.25741200	9.79893900	0.76190400	1.22741600	9.85262600	1.76785200	-1.16141600	5.24069000	-1.33171700	9.87665600	5.86377100	-0.26969300	8.04574600
928	9.27000000	8.92108700	0.62998600	4.94067700	9.72606900	0.78146700	4.32013400	12.53423100	-1.75057700	3.59464500	12.22806400	-4.89435000	-3.28038400	9.77932500	0.83436400	1.06135700	9.88973200	1.66380500	-1.22851100	6.02893600	-2.73678400	10.45517900	5.80481200	0.18236700	8.21006800
929	9.28000000	8.92773400	0.41109300	5.05252600	9.98919800	0.81269000	4.44713200	12.54793600	-0.86784800	2.39613200	11.72149200	-4.35136900	-2.86174500	9.93347300	0.78908900	0.75894400	9.85055700	2.04589300	-1.50982400	6.60815500	-3.84667300	9.47058900	5.66209500	0.21413900	8.43257000
930	9.29000000	8.95384500	0.18645600	5.08543800	10.24733500	0.73422600	4.54231700	11.92691800	-1.14616900	1.10699700	11.07052400	-3.60901500	-2.25052200	10.18660100	0.69556500	0.61568300	9.83283200	2.31918000	-1.82706300	7.47656400	-2.96480800	10.10298600	5.68182900	0.16533500	8.52336000
931	9.30000000	9.03417200	-0.02401700	5.14133900	10.39358300	0.48591100	4.42936000	11.74027000	-1.35223500	0.52503000	10.75781500	-2.34146400	-1.90873700	10.42468000	0.41851400	0.55096500	9.89317800	2.15707500	-2.07172300	9.43046300	-3.68225100	10.38677200	5.53531700	0.11848900	8.64682900
932	9.31000000	9.14553100	-0.16157100	5.19259500	10.35158800	0.18532300	4.34931600	11.96016000	-0.28420800	0.63505900	10.62277100	-0.80576700	-1.87229100	10.37237500	-0.12296800	0.53487600	9.71660900	2.13865500	-2.18526200	6.27625600	-1.72485100	9.45543300	5.90756200	0.18917900	8.61452700
933	9.32000000	9.34335600	-0.12405900	5.28190900	10.28934100	-0.22393300	4.09026900	11.60869200	1.68670400	0.85941800	10.26108200	0.05804500	-2.13587500	10.67532800	-0.55424000	0.88139300	9.92051700	1.76667500	-2.33371200	6.46365300	-0.62394600	9.46912500	5.98138000	-0.24142500	9.02259500
934	9.33000000	9.60839700	-0.02538700	5.32358700	10.13849500	-0.75043100	4.03828900	10.46583200	3.21909700	1.39680700	9.54307600	1.48413000	-2.01450800	11.23741100	-0.87532000	1.44241200	10.52981000	1.89538000	-2.29906200	6.02452100	-0.09184900	9.32026600	5.36934200	-2.16186600	8.95772000
935	9.34000000	9.76214600	-0.14022900	5.28197000	10.12656000	-1.24727600	3.78862400	9.29306900	3.31986400	1.82853000	8.84313300	2.46205900	-1.75432200	11.66054500	-0.98357000	2.14136000	11.10454800	2.33971700	-2.42722500	4.98078500	-0.45334200	9.39922200	5.89820900	-0.50104600	9.30993700
936	9.35000000	9.60836000	-0.23140100	5.21576500	10.05554100	-1.55995600	3.74352300	8.83582800	1.92447700	1.98051600	8.72008700	3.22858400	-1.49466300	11.29081800	-0.69953000	2.54792400	11.54406000	2.18943700	-2.35335700	4.83408100	-0.90476600	8.77987000	5.80624700	-1.89431400	8.77445900
937	9.36000000	9.50199100	-0.20370700	5.15487600	9.91690000	-1.47974400	3.77181000	9.10963300	-0.31715500	1.84630100	8.71250100	3.43223100	-1.62769700	10.95680100	-0.41895400	2.62725800	11.38009100	1.61649000	-2.23633100	4.57783100	-0.40427600	8.81298800	5.97101800	-1.83097400	8.99739100
938	9.37000000	9.26565800	-0.12599400	5.05294800	9.68215400	-1.20627000	3.86147000	9.72742800	-2.24054400	1.55891200	8.97776400	4.44221200	-1.50200000	10.86126600	-0.03024000	2.58138500	10.90907900	2.23338600	-1.75708700	4.29762200	-0.57622800	8.89708100	6.08845400	-1.84677800	8.81005500
939	9.38000000	9.08067000	0.01383200	4.95715500	9.42467500	-0.71952000	3.94857700	10.22271800	-3.20774700	1.31871300	9.42166600	4.26705800	-1.68069600	10.91168900	0.24682700	2.40566000	10.49725800	2.61124600	-1.30718900	3.86772200	-0.81721600	9.18952100	5.94227800	-1.79301700	8.63570200
940	9.39000000	8.85176100	0.12419100	4.78762300	9.21743500	-0.18329500	3.94819200	10.12654100	-3.30212200	0.96686900	9.45980700	3.62683100	-1.92959400	10.84303000	0.37961100	2.30581000	10.04931300	2.74225300	-0.83602600	3.93119500	-0.99778400	8.56678700	6.19645600	-1.68486900	8.38128000
941	9.40000000	8.62656800	0.23671600	4.69683200	9.07784200	0.33726300	3.94186700	9.81792700	-2.52149900	0.73121200	9.53151900	2.74745300	-2.28478300	10.57067700	0.35304300	1.98349100	9.58164900	3.05135600	-0.44878100	4.17412300	-0.78275500	8.81238100	6.29077500	-1.42957600	8.31176500
942	9.41000000	8.36043900	0.21387400	4.46882100	8.82061300	0.72581200	3.90382100	9.70775000	-1.45346700	0.75952200	9.54472800	1.56093000	-2.78554200	10.39919400	0.27009500	1.76770400	9.01898100	3.14769200	-0.10664900	4.05396600	-1.12021100	8.67324600	6.36909000	-1.12889800	8.52703000
943	9.42000000	8.12261200	0.17708200	4.30288200	8.66652700	0.95541000	3.82905900	9.80773000	-0.47683000	1.08366900	9.17427000	0.40981700	-3.34920000	10.58576000	0.18057500	1.66108900	8.60180700	2.67154800	0.09031700	3.96092500	-1.78203600	8.31740500	6.59065200	-0.79973500	8.56220300
944	9.43000000	7.99118900	0.11707100	4.37449600	8.47519600	1.14649800	3.77044100	9.81642600	-0.03811900	1.19176600	8.89385000	0.09162300	-3.20265100	10.90708200	0.11975500	1.54828300	8.70243800	2.76854900	0.27865200	4.06616000	-1.16319300	8.36754900	6.83878400	-0.48659000	8.49311300
945	9.44000000	7.91642300	0.11268300	4.50922500	8.44748200	1.18029500	3.74020000	9.79082000	-0.08063800	1.10287800	8.71717400	-0.29587600	-2.84396900	11.15541100	0.07538800	1.61835700	8.81676500	2.53664200	0.50298200	4.21894700	-0.99961200	8.55447200	6.93762500	-0.52214200	8.33964200
946	9.45000000	7.71336000	0.00801400	4.39733100	8.39397300	1.11827300	3.70884100	9.77204700	-0.28667500	1.38663900	8.93947400	-0.33970500	-2.55331200	11.19898600	-0.19845200	1.86565000	9.01580300	2.29871000	0.44437200	3.86208800	-1.26830800	8.85092400	7.09615600	-0.22990800	8.44863200
947	9.46000000	7.56022300	-0.07301700	4.33290000	8.40632100	0.93206600	3.64133100	9.71297200	-0.70904100	1.49773300	9.30479500	-0.13678100	-2.40449800	11.26719200	-0.88060300	2.08237400	9.18821800	1.93943700	0.34656600	3.90830900	-1.40591300	8.14295500	8.28592200	-0.22305900	8.56187900
948	9.47000000	7.47477600	-0.18103300	4.36786000	8.43138300	0.72574600	3.50188700	9.57503300	-1.22588500	1.47161100	9.53252300	0.46402600	-2.14566400	11.28626800	-1.92979800	2.02396400	9.24364500	1.61620500	0.30310800	4.37708800	-1.10430000	8.47715900	8.27720800	-1.30780400	7.62616500
949	9.48000000	7.61792900	-0.41548700	4.30175700	8.51986800	0.47159700	3.33663200	9.52027900	-1.61702200	1.45050700	9.74768100	0.92039600	-1.84537900	11.32723200	-3.13517500	1.96575900	9.63515400	1.98171400	0.26177200	4.49091600	-1.07914400	8.38332300	7.72457300	2.66924400	8.87061000
950	9.49000000	7.83690800	-0.65662800	4.24950500	8.60969400	0.31678100	3.17735100	9.63930800	-1.42331800	1.45971200	9.76065000	1.28197600	-1.64933500	10.82213500	-4.14401400	1.56554100	9.65850500	2.11632000	0.29974300	4.16180600	-0.81300300	9.31565100	9.80466300	4.10182500	9.06780600
951	9.50000000	7.97219200	-0.81435700	4.30936700	8.73280200	0.17924600	3.03373900	9.91522500	-0.95868200	1.55554700	9.60442800	1.53443200	-1.56127200	10.02773600	-4.90098300	1.29285800	9.66435300	2.91285400	0.63805800	4.40282300	-0.70629500	8.42899700	8.43697200	-0.40373300	7.13056100
952	9.51000000	8.12819800	-0.92236800	4.45612600	8.99350200	0.13552300	2.99924800	9.92841100	-0.72186000	1.48230400	9.48411600	1.74670600	-1.49605800	9.32594800	-5.69902100	1.30113500	10.61978500	2.64417900	0.69831300	4.77040100	-0.80676000	8.89455100	10.12316800	-1.00824700	5.96730300
